<?xml version='1.0' encoding='UTF-8'?>
<!DOCTYPE svg PUBLIC "-//W3C//DTD SVG 1.0//EN" "http://www.w3.org/TR/2001/REC-SVG-20010904/DTD/svg10.dtd">
<svg viewBox="0 0 640 200" xmlns="http://www.w3.org/2000/svg" xmlns:inkspace="http://www.inkscape.org/namespaces/inkscape" xmlns:xlink="http://www.w3.org/1999/xlink" width="640px" height="200px">
  <defs id="defs_block">
    <filter height="1.504" id="filter_blur" inkspace:collect="always" width="1.1575" x="-0.07875" y="-0.252">
      <feGaussianBlur id="feGaussianBlur3780" inkspace:collect="always" stdDeviation="4.2" />
    </filter>
  </defs>
  <title>blockdiag</title>
  <desc>blockdiag {
  default_node_color = lightyellow;
  default_group_color = lightgreen;
  default_linecolor = magenta;
  default_textcolor = red;
  default_shape = roundedbox;


  A -&gt; B -&gt; C;
       B -&gt; D;
  group {
    C; D;
  }

  B [style = dotted];
  C [style = dashed];
  D [style = "3,3,3,3,15,3"];

  B [color = none];
  C [color = pink];
  D [color = "#888888"];

  A [numbered = Є, label = "Input", description = "Beef, carrots, potatoes, curry powder and water"];
  B [numbered = 99, label = "Process", description = "Simmer and simmer"];
  C [numbered = A, label = "Output", description = "yum-yum curry"];

}</desc>
  <rect fill="rgb(144,238,144)" height="140" style="filter:url(#filter_blur)" width="144" x="440" y="30" />
  <path d="M 75 46 L 187 46 A8,8 0 0 1 195 54 L 195 78 A8,8 0 0 1 187 86 L 75 86 A8,8 0 0 1 67 78 L 67 54 A8,8 0 0 1 75 46" fill="rgb(0,0,0)" stroke="rgb(0,0,0)" style="filter:url(#filter_blur);opacity:0.7;fill-opacity:1" />
  <path d="M 459 46 L 571 46 A8,8 0 0 1 579 54 L 579 78 A8,8 0 0 1 571 86 L 459 86 A8,8 0 0 1 451 78 L 451 54 A8,8 0 0 1 459 46" fill="rgb(0,0,0)" stroke="rgb(0,0,0)" style="filter:url(#filter_blur);opacity:0.7;fill-opacity:1" />
  <path d="M 459 126 L 571 126 A8,8 0 0 1 579 134 L 579 158 A8,8 0 0 1 571 166 L 459 166 A8,8 0 0 1 451 158 L 451 134 A8,8 0 0 1 459 126" fill="rgb(0,0,0)" stroke="rgb(0,0,0)" style="filter:url(#filter_blur);opacity:0.7;fill-opacity:1" />
  <path d="M 72 40 L 184 40 A8,8 0 0 1 192 48 L 192 72 A8,8 0 0 1 184 80 L 72 80 A8,8 0 0 1 64 72 L 64 48 A8,8 0 0 1 72 40" fill="rgb(255,255,224)" stroke="rgb(255,0,255)" />
  <text fill="rgb(255,0,0)" font-family="sans-serif" font-size="11" font-style="normal" font-weight="normal" text-anchor="middle" textLength="31" x="128.5" y="66">Input</text>
  <ellipse cx="64" cy="40" fill="pink" rx="12.0" ry="12.0" stroke="rgb(255,0,255)" />
  <text fill="rgb(255,0,0)" font-family="sans-serif" font-size="11" font-style="normal" font-weight="normal" text-anchor="middle" textLength="7" x="64.5" y="46">Є</text>
  <path d="M 264 40 L 376 40 A8,8 0 0 1 384 48 L 384 72 A8,8 0 0 1 376 80 L 264 80 A8,8 0 0 1 256 72 L 256 48 A8,8 0 0 1 264 40" fill="none" stroke="rgb(255,0,255)" stroke-dasharray="2" />
  <text fill="rgb(255,0,0)" font-family="sans-serif" font-size="11" font-style="normal" font-weight="normal" text-anchor="middle" textLength="43" x="320.5" y="66">Process</text>
  <ellipse cx="256" cy="40" fill="pink" rx="12.0" ry="12.0" stroke="rgb(255,0,255)" />
  <text fill="rgb(255,0,0)" font-family="sans-serif" font-size="11" font-style="normal" font-weight="normal" text-anchor="middle" textLength="13" x="256.5" y="46">99</text>
  <path d="M 456 40 L 568 40 A8,8 0 0 1 576 48 L 576 72 A8,8 0 0 1 568 80 L 456 80 A8,8 0 0 1 448 72 L 448 48 A8,8 0 0 1 456 40" fill="rgb(255,192,203)" stroke="rgb(255,0,255)" stroke-dasharray="4" />
  <text fill="rgb(255,0,0)" font-family="sans-serif" font-size="11" font-style="normal" font-weight="normal" text-anchor="middle" textLength="37" x="512.5" y="66">Output</text>
  <ellipse cx="448" cy="40" fill="pink" rx="12.0" ry="12.0" stroke="rgb(255,0,255)" />
  <text fill="rgb(255,0,0)" font-family="sans-serif" font-size="11" font-style="normal" font-weight="normal" text-anchor="middle" textLength="7" x="448.5" y="46">A</text>
  <path d="M 456 120 L 568 120 A8,8 0 0 1 576 128 L 576 152 A8,8 0 0 1 568 160 L 456 160 A8,8 0 0 1 448 152 L 448 128 A8,8 0 0 1 456 120" fill="rgb(136,136,136)" stroke="rgb(255,0,255)" stroke-dasharray="3 3 3 3 15 3" />
  <text fill="rgb(255,0,0)" font-family="sans-serif" font-size="11" font-style="normal" font-weight="normal" text-anchor="middle" textLength="7" x="512.5" y="146">D</text>
  <path d="M 192 60 L 248 60" fill="none" stroke="rgb(255,0,255)" />
  <polygon fill="rgb(255,0,255)" points="255,60 248,56 248,64 255,60" stroke="rgb(255,0,255)" />
  <path d="M 384 60 L 440 60" fill="none" stroke="rgb(255,0,255)" />
  <polygon fill="rgb(255,0,255)" points="447,60 440,56 440,64 447,60" stroke="rgb(255,0,255)" />
  <path d="M 384 60 L 416 60" fill="none" stroke="rgb(255,0,255)" />
  <path d="M 416 60 L 416 140" fill="none" stroke="rgb(255,0,255)" />
  <path d="M 416 140 L 440 140" fill="none" stroke="rgb(255,0,255)" />
  <polygon fill="rgb(255,0,255)" points="447,140 440,136 440,144 447,140" stroke="rgb(255,0,255)" />
</svg>