<?xml version='1.0' encoding='UTF-8'?>
<!DOCTYPE svg PUBLIC "-//W3C//DTD SVG 1.0//EN" "http://www.w3.org/TR/2001/REC-SVG-20010904/DTD/svg10.dtd">
<svg viewBox="0 0 744 380" xmlns="http://www.w3.org/2000/svg" xmlns:inkspace="http://www.inkscape.org/namespaces/inkscape" xmlns:xlink="http://www.w3.org/1999/xlink" width="744px" height="380px">
  <defs id="defs_block">
    <filter height="1.504" id="filter_blur" inkspace:collect="always" width="1.1575" x="-0.07875" y="-0.252">
      <feGaussianBlur id="feGaussianBlur3780" inkspace:collect="always" stdDeviation="4.2" />
    </filter>
  </defs>
  <title>blockdiag</title>
  <desc>blockdiag {
  default_node_color = lightyellow;
  default_group_color = lightgreen;
  default_linecolor = magenta;
  default_textcolor = red;
  default_shape = roundedbox;

  // Set span metrix
  span_width = 90;  // default value is 64
  span_height = 60;  // default value is 40
  node_height = 100;  // default value is 40

  A -&gt; B -&gt; C;
       B -&gt; D[label = "смітник", style="dotted", textcolor="red", fontsize = 7];
  group {
    C; D;
  }

  B [style = dotted];
  C [style = dashed];
  D [style = "3,3,3,3,15,3"];

  B [color = none];
  C [color = pink];
  D [color = "#888888"];
  A [numbered = 20, label = "Сировина", description = "Інгридієнти", stacked];
  B [numbered = 4, label = "Обробка", description = "Багато обробки"];
  C [numbered = "A+", label = "Продукт", description = "Щось смачненьке", stacked];
  D [numbered = "C-", label = "Відходи", description = "Всілякий непотреб", stacked];
}</desc>
  <rect fill="rgb(144,238,144)" height="290" style="filter:url(#filter_blur)" width="150" x="515" y="45" />
  <path d="M 109 74 L 221 74 A8,8 0 0 1 229 82 L 229 166 A8,8 0 0 1 221 174 L 109 174 A8,8 0 0 1 101 166 L 101 82 A8,8 0 0 1 109 74" fill="rgb(0,0,0)" stroke="rgb(0,0,0)" style="filter:url(#filter_blur);opacity:0.7;fill-opacity:1" />
  <path d="M 105 70 L 217 70 A8,8 0 0 1 225 78 L 225 162 A8,8 0 0 1 217 170 L 105 170 A8,8 0 0 1 97 162 L 97 78 A8,8 0 0 1 105 70" fill="rgb(0,0,0)" stroke="rgb(0,0,0)" style="filter:url(#filter_blur);opacity:0.7;fill-opacity:1" />
  <path d="M 101 66 L 213 66 A8,8 0 0 1 221 74 L 221 158 A8,8 0 0 1 213 166 L 101 166 A8,8 0 0 1 93 158 L 93 74 A8,8 0 0 1 101 66" fill="rgb(0,0,0)" stroke="rgb(0,0,0)" style="filter:url(#filter_blur);opacity:0.7;fill-opacity:1" />
  <path d="M 545 74 L 657 74 A8,8 0 0 1 665 82 L 665 166 A8,8 0 0 1 657 174 L 545 174 A8,8 0 0 1 537 166 L 537 82 A8,8 0 0 1 545 74" fill="rgb(0,0,0)" stroke="rgb(0,0,0)" style="filter:url(#filter_blur);opacity:0.7;fill-opacity:1" />
  <path d="M 541 70 L 653 70 A8,8 0 0 1 661 78 L 661 162 A8,8 0 0 1 653 170 L 541 170 A8,8 0 0 1 533 162 L 533 78 A8,8 0 0 1 541 70" fill="rgb(0,0,0)" stroke="rgb(0,0,0)" style="filter:url(#filter_blur);opacity:0.7;fill-opacity:1" />
  <path d="M 537 66 L 649 66 A8,8 0 0 1 657 74 L 657 158 A8,8 0 0 1 649 166 L 537 166 A8,8 0 0 1 529 158 L 529 74 A8,8 0 0 1 537 66" fill="rgb(0,0,0)" stroke="rgb(0,0,0)" style="filter:url(#filter_blur);opacity:0.7;fill-opacity:1" />
  <path d="M 545 234 L 657 234 A8,8 0 0 1 665 242 L 665 326 A8,8 0 0 1 657 334 L 545 334 A8,8 0 0 1 537 326 L 537 242 A8,8 0 0 1 545 234" fill="rgb(0,0,0)" stroke="rgb(0,0,0)" style="filter:url(#filter_blur);opacity:0.7;fill-opacity:1" />
  <path d="M 541 230 L 653 230 A8,8 0 0 1 661 238 L 661 322 A8,8 0 0 1 653 330 L 541 330 A8,8 0 0 1 533 322 L 533 238 A8,8 0 0 1 541 230" fill="rgb(0,0,0)" stroke="rgb(0,0,0)" style="filter:url(#filter_blur);opacity:0.7;fill-opacity:1" />
  <path d="M 537 226 L 649 226 A8,8 0 0 1 657 234 L 657 318 A8,8 0 0 1 649 326 L 537 326 A8,8 0 0 1 529 318 L 529 234 A8,8 0 0 1 537 226" fill="rgb(0,0,0)" stroke="rgb(0,0,0)" style="filter:url(#filter_blur);opacity:0.7;fill-opacity:1" />
  <path d="M 106 68 L 218 68 A8,8 0 0 1 226 76 L 226 160 A8,8 0 0 1 218 168 L 106 168 A8,8 0 0 1 98 160 L 98 76 A8,8 0 0 1 106 68" fill="rgb(255,255,224)" stroke="rgb(255,0,255)" />
  <ellipse cx="98" cy="68" fill="pink" rx="12.0" ry="12.0" stroke="rgb(255,0,255)" />
  <text fill="rgb(255,0,0)" font-family="sans-serif" font-size="11" font-style="normal" font-weight="normal" text-anchor="middle" textLength="13" x="98.5" y="74">20</text>
  <path d="M 102 64 L 214 64 A8,8 0 0 1 222 72 L 222 156 A8,8 0 0 1 214 164 L 102 164 A8,8 0 0 1 94 156 L 94 72 A8,8 0 0 1 102 64" fill="rgb(255,255,224)" stroke="rgb(255,0,255)" />
  <ellipse cx="94" cy="64" fill="pink" rx="12.0" ry="12.0" stroke="rgb(255,0,255)" />
  <text fill="rgb(255,0,0)" font-family="sans-serif" font-size="11" font-style="normal" font-weight="normal" text-anchor="middle" textLength="13" x="94.5" y="70">20</text>
  <path d="M 98 60 L 210 60 A8,8 0 0 1 218 68 L 218 152 A8,8 0 0 1 210 160 L 98 160 A8,8 0 0 1 90 152 L 90 68 A8,8 0 0 1 98 60" fill="rgb(255,255,224)" stroke="rgb(255,0,255)" />
  <text fill="rgb(255,0,0)" font-family="sans-serif" font-size="11" font-style="normal" font-weight="normal" text-anchor="middle" textLength="88" x="154.0" y="116">Сировина</text>
  <ellipse cx="90" cy="60" fill="pink" rx="12.0" ry="12.0" stroke="rgb(255,0,255)" />
  <text fill="rgb(255,0,0)" font-family="sans-serif" font-size="11" font-style="normal" font-weight="normal" text-anchor="middle" textLength="13" x="90.5" y="66">20</text>
  <path d="M 316 60 L 428 60 A8,8 0 0 1 436 68 L 436 152 A8,8 0 0 1 428 160 L 316 160 A8,8 0 0 1 308 152 L 308 68 A8,8 0 0 1 316 60" fill="none" stroke="rgb(255,0,255)" stroke-dasharray="2" />
  <text fill="rgb(255,0,0)" font-family="sans-serif" font-size="11" font-style="normal" font-weight="normal" text-anchor="middle" textLength="77" x="372.5" y="116">Обробка</text>
  <ellipse cx="308" cy="60" fill="pink" rx="12.0" ry="12.0" stroke="rgb(255,0,255)" />
  <text fill="rgb(255,0,0)" font-family="sans-serif" font-size="11" font-style="normal" font-weight="normal" text-anchor="middle" textLength="7" x="308.5" y="66">4</text>
  <path d="M 542 68 L 654 68 A8,8 0 0 1 662 76 L 662 160 A8,8 0 0 1 654 168 L 542 168 A8,8 0 0 1 534 160 L 534 76 A8,8 0 0 1 542 68" fill="rgb(255,192,203)" stroke="rgb(255,0,255)" stroke-dasharray="4" />
  <ellipse cx="534" cy="68" fill="pink" rx="12.0" ry="12.0" stroke="rgb(255,0,255)" />
  <text fill="rgb(255,0,0)" font-family="sans-serif" font-size="11" font-style="normal" font-weight="normal" text-anchor="middle" textLength="13" x="534.5" y="74">A+</text>
  <path d="M 538 64 L 650 64 A8,8 0 0 1 658 72 L 658 156 A8,8 0 0 1 650 164 L 538 164 A8,8 0 0 1 530 156 L 530 72 A8,8 0 0 1 538 64" fill="rgb(255,192,203)" stroke="rgb(255,0,255)" stroke-dasharray="4" />
  <ellipse cx="530" cy="64" fill="pink" rx="12.0" ry="12.0" stroke="rgb(255,0,255)" />
  <text fill="rgb(255,0,0)" font-family="sans-serif" font-size="11" font-style="normal" font-weight="normal" text-anchor="middle" textLength="13" x="530.5" y="70">A+</text>
  <path d="M 534 60 L 646 60 A8,8 0 0 1 654 68 L 654 152 A8,8 0 0 1 646 160 L 534 160 A8,8 0 0 1 526 152 L 526 68 A8,8 0 0 1 534 60" fill="rgb(255,192,203)" stroke="rgb(255,0,255)" stroke-dasharray="4" />
  <text fill="rgb(255,0,0)" font-family="sans-serif" font-size="11" font-style="normal" font-weight="normal" text-anchor="middle" textLength="77" x="590.5" y="116">Продукт</text>
  <ellipse cx="526" cy="60" fill="pink" rx="12.0" ry="12.0" stroke="rgb(255,0,255)" />
  <text fill="rgb(255,0,0)" font-family="sans-serif" font-size="11" font-style="normal" font-weight="normal" text-anchor="middle" textLength="13" x="526.5" y="66">A+</text>
  <path d="M 542 228 L 654 228 A8,8 0 0 1 662 236 L 662 320 A8,8 0 0 1 654 328 L 542 328 A8,8 0 0 1 534 320 L 534 236 A8,8 0 0 1 542 228" fill="rgb(136,136,136)" stroke="rgb(255,0,255)" stroke-dasharray="3 3 3 3 15 3" />
  <ellipse cx="534" cy="228" fill="pink" rx="12.0" ry="12.0" stroke="rgb(255,0,255)" />
  <text fill="rgb(255,0,0)" font-family="sans-serif" font-size="11" font-style="normal" font-weight="normal" text-anchor="middle" textLength="13" x="534.5" y="234">C-</text>
  <path d="M 538 224 L 650 224 A8,8 0 0 1 658 232 L 658 316 A8,8 0 0 1 650 324 L 538 324 A8,8 0 0 1 530 316 L 530 232 A8,8 0 0 1 538 224" fill="rgb(136,136,136)" stroke="rgb(255,0,255)" stroke-dasharray="3 3 3 3 15 3" />
  <ellipse cx="530" cy="224" fill="pink" rx="12.0" ry="12.0" stroke="rgb(255,0,255)" />
  <text fill="rgb(255,0,0)" font-family="sans-serif" font-size="11" font-style="normal" font-weight="normal" text-anchor="middle" textLength="13" x="530.5" y="230">C-</text>
  <path d="M 534 220 L 646 220 A8,8 0 0 1 654 228 L 654 312 A8,8 0 0 1 646 320 L 534 320 A8,8 0 0 1 526 312 L 526 228 A8,8 0 0 1 534 220" fill="rgb(136,136,136)" stroke="rgb(255,0,255)" stroke-dasharray="3 3 3 3 15 3" />
  <text fill="rgb(255,0,0)" font-family="sans-serif" font-size="11" font-style="normal" font-weight="normal" text-anchor="middle" textLength="73" x="590.5" y="276">Відходи</text>
  <ellipse cx="526" cy="220" fill="pink" rx="12.0" ry="12.0" stroke="rgb(255,0,255)" />
  <text fill="rgb(255,0,0)" font-family="sans-serif" font-size="11" font-style="normal" font-weight="normal" text-anchor="middle" textLength="13" x="526.5" y="226">C-</text>
  <path d="M 226 110 L 300 110" fill="none" stroke="rgb(255,0,255)" />
  <polygon fill="rgb(255,0,255)" points="307,110 300,106 300,114 307,110" stroke="rgb(255,0,255)" />
  <path d="M 436 110 L 518 110" fill="none" stroke="rgb(255,0,255)" />
  <polygon fill="rgb(255,0,255)" points="525,110 518,106 518,114 525,110" stroke="rgb(255,0,255)" />
  <path d="M 436 110 L 481 110" fill="none" stroke="rgb(255,0,255)" stroke-dasharray="2" />
  <path d="M 481 110 L 481 270" fill="none" stroke="rgb(255,0,255)" stroke-dasharray="2" />
  <path d="M 481 270 L 518 270" fill="none" stroke="rgb(255,0,255)" stroke-dasharray="2" />
  <polygon fill="rgb(255,0,255)" points="525,270 518,266 518,274 525,270" stroke="rgb(255,0,255)" />
  <rect fill="white" height="11" stroke="rgb(0,0,0)" width="62" x="450" y="233" />
  <text fill="red" font-family="sans-serif" font-size="7" font-style="normal" font-weight="normal" text-anchor="middle" textLength="46" x="481.0" y="242">смітник</text>
</svg>