<?xml version="1.0" encoding="UTF-8" standalone="no"?>
<!DOCTYPE svg PUBLIC "-//W3C//DTD SVG 1.1//EN"
 "http://www.w3.org/Graphics/SVG/1.1/DTD/svg11.dtd">
<!-- Generated by graphviz version 2.44.0 ()
 -->
<!-- Title: unix Pages: 1 -->
<svg width="432pt" height="388pt"
 viewBox="0.00 0.00 432.00 388.22" xmlns="http://www.w3.org/2000/svg" xmlns:xlink="http://www.w3.org/1999/xlink">
<g id="graph0" class="graph" transform="scale(0.32 0.32) rotate(0) translate(4 1198)">
<title>unix</title>
<polygon fill="white" stroke="transparent" points="-4,4 -4,-1198 1333.55,-1198 1333.55,4 -4,4"/>
<text text-anchor="middle" x="664.78" y="-55.2" font-family="Helvetica,sans-Serif" font-style="oblique" font-size="36.00">Object Oriented Graphs</text>
<text text-anchor="middle" x="664.78" y="-15.2" font-family="Helvetica,sans-Serif" font-style="oblique" font-size="36.00">Stephen North, 3/19/93</text>
<!-- 5th Edition -->
<g id="node1" class="node">
<title>5th Edition</title>
<polygon fill="#ee8262" stroke="#ee8262" points="803.99,-1171.81 813.67,-1187.3 783.1,-1194.13 713.46,-1186.82 657.44,-1172.29 661.34,-1160.82 710.23,-1155.51 756.57,-1154.55 783.23,-1159.19 803.99,-1171.81"/>
<text text-anchor="middle" x="742.56" y="-1167.68" font-family="Helvetica-Outline" font-size="14.00">5th Edition</text>
</g>
<!-- 6th Edition -->
<g id="node2" class="node">
<title>6th Edition</title>
<polygon fill="deepskyblue" stroke="deepskyblue" points="723.81,-1104.7 637.73,-1112.64 525.16,-1093.96 550.33,-1074.95 655.77,-1080.64 723.81,-1104.7"/>
<text text-anchor="middle" x="618.56" y="-1089.68" font-family="Helvetica-Outline" font-size="14.00">6th Edition</text>
</g>
<!-- 5th Edition&#45;&gt;6th Edition -->
<g id="edge1" class="edge">
<title>5th Edition&#45;&gt;6th Edition</title>
<path fill="none" stroke="black" d="M717.76,-1155.18C700.03,-1144.31 675.86,-1129.5 655.82,-1117.21"/>
<polygon fill="black" stroke="black" points="657.58,-1114.19 647.22,-1111.94 653.92,-1120.15 657.58,-1114.19"/>
</g>
<!-- PWB 1.0 -->
<g id="node3" class="node">
<title>PWB 1.0</title>
<polygon fill="#eeb422" stroke="#eeb422" points="974.4,-1111.66 935.86,-1111.5 902.93,-1100.59 894.9,-1085.31 916.62,-1074.9 955.36,-1075.44 988.29,-1086.36 996.12,-1101.25 974.4,-1111.66"/>
<text text-anchor="middle" x="945.56" y="-1089.68" font-family="Helvetica-Outline" font-size="14.00">PWB 1.0</text>
</g>
<!-- 5th Edition&#45;&gt;PWB 1.0 -->
<g id="edge2" class="edge">
<title>5th Edition&#45;&gt;PWB 1.0</title>
<path fill="none" stroke="black" d="M776.08,-1157.83C812.06,-1144.36 869.12,-1123 906.94,-1108.83"/>
<polygon fill="black" stroke="black" points="908.46,-1112 916.6,-1105.22 906,-1105.45 908.46,-1112"/>
</g>
<!-- LSX -->
<g id="node4" class="node">
<title>LSX</title>
<polygon fill="#eec591" stroke="#eec591" points="876,-1007.64 862.26,-1017.27 836.63,-1022.48 816.65,-1022.17 803.19,-1014.43 794.03,-1000.85 799.02,-989.11 826.23,-987.21 861.02,-995.59 876,-1007.64"/>
<text text-anchor="middle" x="830.56" y="-1002.6" font-family="Helvetica-Outline" font-size="14.00">LSX</text>
</g>
<!-- 6th Edition&#45;&gt;LSX -->
<g id="edge3" class="edge">
<title>6th Edition&#45;&gt;LSX</title>
<path fill="none" stroke="black" d="M657.65,-1081.14C690.1,-1071.29 737.17,-1055.79 776.56,-1038 785.27,-1034.06 794.42,-1029.17 802.67,-1024.46"/>
<polygon fill="black" stroke="black" points="804.66,-1027.35 811.52,-1019.28 801.12,-1021.31 804.66,-1027.35"/>
</g>
<!-- 1 BSD -->
<g id="node5" class="node">
<title>1 BSD</title>
<polygon fill="#ffd700" stroke="#ffd700" points="214.63,-1011.25 202.78,-1025.59 161.22,-1024.06 127.45,-1009.16 133.09,-993.46 164.94,-986.83 196.8,-993.78 214.63,-1011.25"/>
<text text-anchor="middle" x="171.56" y="-1002.6" font-family="Helvetica-Outline" font-size="14.00">1 BSD</text>
</g>
<!-- 6th Edition&#45;&gt;1 BSD -->
<g id="edge4" class="edge">
<title>6th Edition&#45;&gt;1 BSD</title>
<path fill="none" stroke="black" d="M541.16,-1081.71C474.04,-1071.96 374.45,-1056.3 288.56,-1038 265.42,-1033.07 239.99,-1026.53 218.76,-1020.76"/>
<polygon fill="black" stroke="black" points="219.59,-1017.36 209.02,-1018.08 217.74,-1024.11 219.59,-1017.36"/>
</g>
<!-- Mini Unix -->
<g id="node6" class="node">
<title>Mini Unix</title>
<polygon fill="greenyellow" stroke="greenyellow" points="582.48,-1024.3 473.36,-1022.91 501.29,-988.34 605.11,-989.67 582.48,-1024.3"/>
<text text-anchor="middle" x="540.56" y="-1002.6" font-family="Helvetica-Outline" font-size="14.00">Mini Unix</text>
</g>
<!-- 6th Edition&#45;&gt;Mini Unix -->
<g id="edge5" class="edge">
<title>6th Edition&#45;&gt;Mini Unix</title>
<path fill="none" stroke="black" d="M604.97,-1077.56C593.3,-1064.83 576.25,-1046.23 562.63,-1031.37"/>
<polygon fill="black" stroke="black" points="565.2,-1029 555.86,-1023.99 560.04,-1033.73 565.2,-1029"/>
</g>
<!-- Wollongong -->
<g id="node7" class="node">
<title>Wollongong</title>
<polygon fill="darkseagreen" stroke="darkseagreen" points="710.97,-1025.7 630.2,-1014.05 641.14,-991.69 733.03,-991.65 767.45,-1008.42 710.97,-1025.7"/>
<text text-anchor="middle" x="696.56" y="-1002.6" font-family="Helvetica-Outline" font-size="14.00">Wollongong</text>
</g>
<!-- 6th Edition&#45;&gt;Wollongong -->
<g id="edge6" class="edge">
<title>6th Edition&#45;&gt;Wollongong</title>
<path fill="none" stroke="black" d="M630.75,-1079.08C642.86,-1065.87 661.66,-1045.37 676.07,-1029.65"/>
<polygon fill="black" stroke="black" points="678.97,-1031.67 683.15,-1021.93 673.81,-1026.93 678.97,-1031.67"/>
</g>
<!-- Interdata -->
<g id="node8" class="node">
<title>Interdata</title>
<polygon fill="#1e90ff" stroke="#1e90ff" points="382.79,-1031.49 297.39,-996.33 392.8,-990.37 433.25,-1007.03 382.79,-1031.49"/>
<text text-anchor="middle" x="376.56" y="-1002.6" font-family="Helvetica-Outline" font-size="14.00">Interdata</text>
</g>
<!-- 6th Edition&#45;&gt;Interdata -->
<g id="edge7" class="edge">
<title>6th Edition&#45;&gt;Interdata</title>
<path fill="none" stroke="black" d="M572.19,-1076.07C527.88,-1060.5 461.66,-1037.22 418.79,-1022.15"/>
<polygon fill="black" stroke="black" points="419.81,-1018.8 409.21,-1018.78 417.49,-1025.4 419.81,-1018.8"/>
</g>
<!-- PWB 1.2 -->
<g id="node28" class="node">
<title>PWB 1.2</title>
<polygon fill="cyan" stroke="cyan" points="965.6,-1035.8 921.29,-1031.92 893.06,-1001.28 904.36,-974.42 948.88,-979.04 989.92,-1000.87 995.79,-1020.8 965.6,-1035.8"/>
<text text-anchor="middle" x="945.56" y="-1002.6" font-family="Helvetica-Outline" font-size="14.00">PWB 1.2</text>
</g>
<!-- PWB 1.0&#45;&gt;PWB 1.2 -->
<g id="edge31" class="edge">
<title>PWB 1.0&#45;&gt;PWB 1.2</title>
<path fill="none" stroke="black" d="M945.56,-1075.16C945.56,-1066.26 945.56,-1055.03 945.56,-1044.28"/>
<polygon fill="black" stroke="black" points="949.06,-1044.21 945.56,-1034.21 942.06,-1044.21 949.06,-1044.21"/>
</g>
<!-- USG 1.0 -->
<g id="node29" class="node">
<title>USG 1.0</title>
<polygon fill="blue" stroke="blue" points="1135.33,-1031.5 1015.9,-1000.44 1109.07,-990.28 1157.94,-1002.99 1135.33,-1031.5"/>
<text text-anchor="middle" x="1104.56" y="-1002.6" font-family="Helvetica-Outline" font-size="14.00">USG 1.0</text>
</g>
<!-- PWB 1.0&#45;&gt;USG 1.0 -->
<g id="edge32" class="edge">
<title>PWB 1.0&#45;&gt;USG 1.0</title>
<path fill="none" stroke="black" d="M969.02,-1079.82C997.2,-1064.74 1044.5,-1039.44 1075.11,-1023.06"/>
<polygon fill="black" stroke="black" points="1076.87,-1026.09 1084.04,-1018.28 1073.57,-1019.92 1076.87,-1026.09"/>
</g>
<!-- 2 BSD -->
<g id="node19" class="node">
<title>2 BSD</title>
<polygon fill="blanchedalmond" stroke="blanchedalmond" points="127.78,-575 92.82,-574.32 74.26,-561.41 86.05,-545.86 119.28,-539.26 148.96,-546.76 152.77,-562.75 127.78,-575"/>
<text text-anchor="middle" x="114.56" y="-554.21" font-family="Helvetica-Outline" font-size="14.00">2 BSD</text>
</g>
<!-- 1 BSD&#45;&gt;2 BSD -->
<g id="edge19" class="edge">
<title>1 BSD&#45;&gt;2 BSD</title>
<path fill="none" stroke="black" d="M165.53,-986.74C155.29,-953.47 135.56,-881.32 135.56,-818.84 135.56,-818.84 135.56,-818.84 135.56,-725.04 135.56,-675.15 126.12,-617.5 119.9,-584.91"/>
<polygon fill="black" stroke="black" points="123.29,-584 117.93,-574.86 116.42,-585.35 123.29,-584"/>
</g>
<!-- Unix/TS 3.0 -->
<g id="node9" class="node">
<title>Unix/TS 3.0</title>
<polygon fill="#eed2ee" stroke="#eed2ee" points="974.38,-741.5 945.66,-752.56 867.3,-744.65 785.18,-722.41 772.8,-705.73 837.4,-704.39 915.77,-712.29 961.99,-724.82 974.38,-741.5"/>
<text text-anchor="middle" x="882.56" y="-722.34" font-family="Helvetica-Outline" font-size="14.00">Unix/TS 3.0</text>
</g>
<!-- Interdata&#45;&gt;Unix/TS 3.0 -->
<g id="edge8" class="edge">
<title>Interdata&#45;&gt;Unix/TS 3.0</title>
<path fill="none" stroke="black" d="M399.07,-992.81C459.05,-959.54 627.76,-866.04 768.56,-788.95 794.6,-774.69 824.06,-758.7 846.5,-746.54"/>
<polygon fill="black" stroke="black" points="848.22,-749.59 855.35,-741.75 844.89,-743.44 848.22,-749.59"/>
</g>
<!-- PWB 2.0 -->
<g id="node10" class="node">
<title>PWB 2.0</title>
<polygon fill="#a2cd5a" stroke="#a2cd5a" points="870.41,-927.43 804.59,-931.06 714.49,-910.05 726.7,-893.91 810.78,-894.53 864.39,-907.04 870.41,-927.43"/>
<text text-anchor="middle" x="798.56" y="-906.97" font-family="Helvetica-Outline" font-size="14.00">PWB 2.0</text>
</g>
<!-- Interdata&#45;&gt;PWB 2.0 -->
<g id="edge9" class="edge">
<title>Interdata&#45;&gt;PWB 2.0</title>
<path fill="none" stroke="black" d="M403.13,-994.6C420.39,-988 443.52,-979.84 464.56,-974.61 567.53,-949.03 596.78,-960.71 700.56,-938.61 718.59,-934.77 738.23,-929.58 755.16,-924.78"/>
<polygon fill="black" stroke="black" points="756.14,-928.14 764.78,-922.01 754.21,-921.41 756.14,-928.14"/>
</g>
<!-- 7th Edition -->
<g id="node11" class="node">
<title>7th Edition</title>
<polygon fill="chocolate" stroke="chocolate" points="424.12,-918.49 404.25,-929.88 373.8,-933.93 341.91,-927.37 321.72,-913.36 324.01,-899.39 348.87,-891.46 384.31,-890.87 414.29,-896.11 428.32,-905.84 424.12,-918.49"/>
<text text-anchor="middle" x="376.56" y="-906.97" font-family="Helvetica-Outline" font-size="14.00">7th Edition</text>
</g>
<!-- Interdata&#45;&gt;7th Edition -->
<g id="edge10" class="edge">
<title>Interdata&#45;&gt;7th Edition</title>
<path fill="none" stroke="black" d="M376.56,-991.08C376.56,-978.58 376.56,-959.91 376.56,-943.82"/>
<polygon fill="black" stroke="black" points="380.06,-943.7 376.56,-933.7 373.06,-943.7 380.06,-943.7"/>
</g>
<!-- TS 4.0 -->
<g id="node38" class="node">
<title>TS 4.0</title>
<polygon fill="crimson" stroke="crimson" points="1026.76,-579.14 1005.58,-583.92 966.43,-578.76 929.95,-568.78 907.9,-556.58 901.7,-542.95 911.54,-531.9 939.35,-530.78 980.16,-543.16 1016.23,-563.11 1026.76,-579.14"/>
<text text-anchor="middle" x="958.56" y="-554.21" font-family="Helvetica-Outline" font-size="14.00">TS 4.0</text>
</g>
<!-- Unix/TS 3.0&#45;&gt;TS 4.0 -->
<g id="edge44" class="edge">
<title>Unix/TS 3.0&#45;&gt;TS 4.0</title>
<path fill="none" stroke="black" d="M889.71,-709.41C902.83,-680.74 930.85,-619.49 946.8,-584.61"/>
<polygon fill="black" stroke="black" points="950.17,-585.66 951.15,-575.11 943.81,-582.74 950.17,-585.66"/>
</g>
<!-- PWB 2.0&#45;&gt;Unix/TS 3.0 -->
<g id="edge42" class="edge">
<title>PWB 2.0&#45;&gt;Unix/TS 3.0</title>
<path fill="none" stroke="black" d="M790.36,-894.06C778.91,-869.91 761.54,-822.74 780.56,-788.95 792.64,-767.49 815.5,-752.61 836.53,-742.82"/>
<polygon fill="black" stroke="black" points="837.94,-746.03 845.7,-738.81 835.13,-739.61 837.94,-746.03"/>
</g>
<!-- 8th Edition -->
<g id="node12" class="node">
<title>8th Edition</title>
<polygon fill="#00c5cd" stroke="#00c5cd" points="671.79,-480.82 621.57,-466.2 656.16,-436.73 800.71,-478.8 671.79,-480.82"/>
<text text-anchor="middle" x="687.56" y="-461.94" font-family="Helvetica-Outline" font-size="14.00">8th Edition</text>
</g>
<!-- 7th Edition&#45;&gt;8th Edition -->
<g id="edge11" class="edge">
<title>7th Edition&#45;&gt;8th Edition</title>
<path fill="none" stroke="black" d="M420.23,-900.12C490.71,-884.52 622.41,-854.52 629.56,-846.73 665.96,-807.03 648.56,-780.9 648.56,-727.04 648.56,-727.04 648.56,-727.04 648.56,-641.05 648.56,-586.18 667.17,-523.88 678.68,-490.6"/>
<polygon fill="black" stroke="black" points="682.09,-491.46 682.14,-480.87 675.49,-489.12 682.09,-491.46"/>
</g>
<!-- 32V -->
<g id="node13" class="node">
<title>32V</title>
<polygon fill="#4f94cd" stroke="#4f94cd" points="616.3,-822.91 619.15,-839.47 570.22,-836.44 522.3,-819.4 527.42,-804.49 558.68,-798.16 586.86,-804 616.3,-822.91"/>
<text text-anchor="middle" x="571.56" y="-814.14" font-family="Helvetica-Outline" font-size="14.00">32V</text>
</g>
<!-- 7th Edition&#45;&gt;32V -->
<g id="edge12" class="edge">
<title>7th Edition&#45;&gt;32V</title>
<path fill="none" stroke="black" d="M408.74,-895.08C436.55,-882.42 477.79,-863.54 513.56,-846.73 522.4,-842.57 531.96,-838.01 540.72,-833.79"/>
<polygon fill="black" stroke="black" points="542.36,-836.89 549.84,-829.39 539.32,-830.58 542.36,-836.89"/>
</g>
<!-- V7M -->
<g id="node14" class="node">
<title>V7M</title>
<polygon fill="navy" stroke="navy" points="103.18,-732.4 96.92,-742.56 73.34,-746.41 50.3,-745.7 33.22,-739.48 17.67,-726.14 6.2,-709.53 12.05,-699.23 41.86,-702.4 80.86,-716.59 103.18,-732.4"/>
<text text-anchor="middle" x="51.56" y="-722.34" font-family="Helvetica-Outline" font-size="14.00">V7M</text>
</g>
<!-- 7th Edition&#45;&gt;V7M -->
<g id="edge13" class="edge">
<title>7th Edition&#45;&gt;V7M</title>
<path fill="none" stroke="black" d="M323.55,-901.24C279.62,-892.53 216.78,-875.98 168.56,-846.73 128.71,-822.55 92.86,-781.68 71.65,-754.53"/>
<polygon fill="black" stroke="black" points="74.41,-752.38 65.55,-746.58 68.86,-756.64 74.41,-752.38"/>
</g>
<!-- Ultrix&#45;11 -->
<g id="node15" class="node">
<title>Ultrix&#45;11</title>
<polygon fill="#698b69" stroke="#698b69" points="177.84,-364.97 179.47,-375.9 157.07,-385.15 129.32,-389.91 102.96,-388.07 75.53,-379.48 53.65,-367.14 55.8,-356.48 91.28,-352.26 142.68,-355.83 177.84,-364.97"/>
<text text-anchor="middle" x="116.56" y="-367.82" font-family="Helvetica-Outline" font-size="14.00">Ultrix&#45;11</text>
</g>
<!-- 7th Edition&#45;&gt;Ultrix&#45;11 -->
<g id="edge14" class="edge">
<title>7th Edition&#45;&gt;Ultrix&#45;11</title>
<path fill="none" stroke="black" d="M322.82,-904.7C283.23,-898.09 231.31,-882.67 201.56,-846.73 167.21,-805.24 182.56,-780.9 182.56,-727.04 182.56,-727.04 182.56,-727.04 182.56,-556.91 182.56,-497.7 152.02,-433.73 132.49,-398.87"/>
<polygon fill="black" stroke="black" points="135.32,-396.77 127.31,-389.83 129.25,-400.25 135.32,-396.77"/>
</g>
<!-- Xenix -->
<g id="node16" class="node">
<title>Xenix</title>
<polygon fill="coral" stroke="coral" points="304.03,-836.38 272.55,-838.14 235.67,-829.83 215,-816.33 217.05,-801.88 240.61,-794.95 277.49,-803.26 306.08,-821.94 304.03,-836.38"/>
<text text-anchor="middle" x="258.56" y="-814.14" font-family="Helvetica-Outline" font-size="14.00">Xenix</text>
</g>
<!-- 7th Edition&#45;&gt;Xenix -->
<g id="edge15" class="edge">
<title>7th Edition&#45;&gt;Xenix</title>
<path fill="none" stroke="black" d="M352.68,-891.29C335,-877.68 310.71,-858.98 291.23,-843.99"/>
<polygon fill="black" stroke="black" points="293.27,-841.14 283.22,-837.82 289,-846.69 293.27,-841.14"/>
</g>
<!-- UniPlus+ -->
<g id="node17" class="node">
<title>UniPlus+</title>
<polygon fill="#a2cd5a" stroke="#a2cd5a" points="482.85,-832.06 451.36,-842.66 371.83,-828.81 324.48,-806.7 365.28,-798.74 434.15,-802.6 471.96,-813.32 482.85,-832.06"/>
<text text-anchor="middle" x="414.56" y="-814.14" font-family="Helvetica-Outline" font-size="14.00">UniPlus+</text>
</g>
<!-- 7th Edition&#45;&gt;UniPlus+ -->
<g id="edge16" class="edge">
<title>7th Edition&#45;&gt;UniPlus+</title>
<path fill="none" stroke="black" d="M384.43,-890.85C390.01,-877.51 397.57,-859.44 403.72,-844.74"/>
<polygon fill="black" stroke="black" points="407.08,-845.78 407.72,-835.2 400.63,-843.07 407.08,-845.78"/>
</g>
<!-- 9th Edition -->
<g id="node18" class="node">
<title>9th Edition</title>
<polygon fill="#cd5b45" stroke="#cd5b45" points="776.28,-385.33 738.2,-395.1 689.84,-385.8 670.64,-365.75 698.07,-351.35 747.12,-351.56 779.77,-365.74 776.28,-385.33"/>
<text text-anchor="middle" x="728.56" y="-367.82" font-family="Helvetica-Outline" font-size="14.00">9th Edition</text>
</g>
<!-- 8th Edition&#45;&gt;9th Edition -->
<g id="edge18" class="edge">
<title>8th Edition&#45;&gt;9th Edition</title>
<path fill="none" stroke="black" d="M695.08,-447.74C700.84,-434.79 708.94,-416.61 715.72,-401.37"/>
<polygon fill="black" stroke="black" points="719.08,-402.42 719.95,-391.86 712.69,-399.57 719.08,-402.42"/>
</g>
<!-- 3 BSD -->
<g id="node22" class="node">
<title>3 BSD</title>
<polygon fill="lemonchiffon" stroke="lemonchiffon" points="560.12,-721.92 559.56,-733.36 541.43,-742.01 509.43,-744.04 477.01,-738.88 460.55,-729.14 467.56,-718.72 492.14,-711.1 521.68,-708.68 546.12,-712.57 560.12,-721.92"/>
<text text-anchor="middle" x="513.56" y="-722.34" font-family="Helvetica-Outline" font-size="14.00">3 BSD</text>
</g>
<!-- 32V&#45;&gt;3 BSD -->
<g id="edge23" class="edge">
<title>32V&#45;&gt;3 BSD</title>
<path fill="none" stroke="black" d="M559.54,-798.23C550.86,-784.79 539.04,-766.49 529.56,-751.81"/>
<polygon fill="black" stroke="black" points="532.37,-749.72 524.01,-743.22 526.49,-753.52 532.37,-749.72"/>
</g>
<!-- V7M&#45;&gt;Ultrix&#45;11 -->
<g id="edge17" class="edge">
<title>V7M&#45;&gt;Ultrix&#45;11</title>
<path fill="none" stroke="black" d="M51.43,-705.82C51.53,-670.73 53.28,-594.06 65.56,-530.85 74.86,-482.96 94.09,-429.34 106.1,-398.4"/>
<polygon fill="black" stroke="black" points="109.46,-399.4 109.87,-388.82 102.95,-396.84 109.46,-399.4"/>
</g>
<!-- 2.8 BSD -->
<g id="node20" class="node">
<title>2.8 BSD</title>
<polygon fill="#b0e2ff" stroke="#b0e2ff" points="275.5,-482.84 220.94,-467.32 269.04,-445.43 344.77,-466.96 275.5,-482.84"/>
<text text-anchor="middle" x="277.56" y="-461.94" font-family="Helvetica-Outline" font-size="14.00">2.8 BSD</text>
</g>
<!-- 2 BSD&#45;&gt;2.8 BSD -->
<g id="edge20" class="edge">
<title>2 BSD&#45;&gt;2.8 BSD</title>
<path fill="none" stroke="black" d="M138.26,-543.78C167.39,-527.65 216.81,-500.28 248.28,-482.85"/>
<polygon fill="black" stroke="black" points="250.37,-485.69 257.43,-477.79 246.98,-479.57 250.37,-485.69"/>
</g>
<!-- 2.8 BSD&#45;&gt;Ultrix&#45;11 -->
<g id="edge21" class="edge">
<title>2.8 BSD&#45;&gt;Ultrix&#45;11</title>
<path fill="none" stroke="black" d="M254.83,-451.63C228.01,-436.29 183.1,-410.59 151.76,-392.66"/>
<polygon fill="black" stroke="black" points="153.33,-389.52 142.91,-387.6 149.85,-395.6 153.33,-389.52"/>
</g>
<!-- 2.9 BSD -->
<g id="node21" class="node">
<title>2.9 BSD</title>
<polygon fill="#76eec6" stroke="#76eec6" points="249.47,-386.11 214.91,-358.44 287.9,-342.71 357.96,-398.82 249.47,-386.11"/>
<text text-anchor="middle" x="277.56" y="-367.82" font-family="Helvetica-Outline" font-size="14.00">2.9 BSD</text>
</g>
<!-- 2.8 BSD&#45;&gt;2.9 BSD -->
<g id="edge22" class="edge">
<title>2.8 BSD&#45;&gt;2.9 BSD</title>
<path fill="none" stroke="black" d="M277.56,-447.74C277.56,-434.32 277.56,-415.29 277.56,-399.73"/>
<polygon fill="black" stroke="black" points="281.06,-399.62 277.56,-389.62 274.06,-399.62 281.06,-399.62"/>
</g>
<!-- 4 BSD -->
<g id="node23" class="node">
<title>4 BSD</title>
<polygon fill="#ff7f00" stroke="#ff7f00" points="542.6,-654.62 487.7,-658.46 458.87,-639.63 477.74,-620.89 565.9,-636.68 542.6,-654.62"/>
<text text-anchor="middle" x="506.56" y="-638.35" font-family="Helvetica-Outline" font-size="14.00">4 BSD</text>
</g>
<!-- 3 BSD&#45;&gt;4 BSD -->
<g id="edge24" class="edge">
<title>3 BSD&#45;&gt;4 BSD</title>
<path fill="none" stroke="black" d="M512.21,-709.24C511.19,-697.34 509.78,-680.82 508.63,-667.26"/>
<polygon fill="black" stroke="black" points="512.1,-666.84 507.76,-657.17 505.13,-667.43 512.1,-666.84"/>
</g>
<!-- 4.1 BSD -->
<g id="node24" class="node">
<title>4.1 BSD</title>
<polygon fill="#ffffe0" stroke="#ffffe0" points="518.44,-578.33 444.28,-561.46 469.68,-534.99 565.84,-556.86 518.44,-578.33"/>
<text text-anchor="middle" x="499.56" y="-554.21" font-family="Helvetica-Outline" font-size="14.00">4.1 BSD</text>
</g>
<!-- 4 BSD&#45;&gt;4.1 BSD -->
<g id="edge25" class="edge">
<title>4 BSD&#45;&gt;4.1 BSD</title>
<path fill="none" stroke="black" d="M505.24,-625.6C504.26,-614.09 502.9,-598.1 501.75,-584.66"/>
<polygon fill="black" stroke="black" points="505.23,-584.24 500.89,-574.57 498.26,-584.83 505.23,-584.24"/>
</g>
<!-- 4.1 BSD&#45;&gt;8th Edition -->
<g id="edge28" class="edge">
<title>4.1 BSD&#45;&gt;8th Edition</title>
<path fill="none" stroke="black" d="M521.13,-546.55C553.58,-530.97 615.26,-501.35 653.73,-482.88"/>
<polygon fill="black" stroke="black" points="655.49,-485.92 662.98,-478.44 652.46,-479.61 655.49,-485.92"/>
</g>
<!-- 4.1 BSD&#45;&gt;2.8 BSD -->
<g id="edge27" class="edge">
<title>4.1 BSD&#45;&gt;2.8 BSD</title>
<path fill="none" stroke="black" d="M462.9,-542C420.94,-524.94 352.76,-497.22 311.83,-480.57"/>
<polygon fill="black" stroke="black" points="313.12,-477.32 302.54,-476.79 310.49,-483.8 313.12,-477.32"/>
</g>
<!-- 4.2 BSD -->
<g id="node25" class="node">
<title>4.2 BSD</title>
<polygon fill="#68228b" stroke="#68228b" points="556.91,-488.78 531.14,-493.22 483,-487.13 439.29,-476.79 413.49,-464.64 405.05,-450.42 413.98,-438.05 445.29,-436.21 495.43,-449.58 542.04,-471.53 556.91,-488.78"/>
<text text-anchor="middle" x="472.56" y="-461.94" font-family="Helvetica-Outline" font-size="14.00">4.2 BSD</text>
</g>
<!-- 4.1 BSD&#45;&gt;4.2 BSD -->
<g id="edge26" class="edge">
<title>4.1 BSD&#45;&gt;4.2 BSD</title>
<path fill="none" stroke="black" d="M494.61,-540.35C490.9,-527.94 485.72,-510.64 481.32,-495.92"/>
<polygon fill="black" stroke="black" points="484.64,-494.81 478.42,-486.23 477.93,-496.81 484.64,-494.81"/>
</g>
<!-- 4.3 BSD -->
<g id="node26" class="node">
<title>4.3 BSD</title>
<polygon fill="#eee9bf" stroke="#eee9bf" points="646.39,-384.21 624.68,-396.36 596.44,-399.03 572.57,-391.38 562.15,-376.26 568.99,-359.21 590.43,-346.68 618.42,-343.63 642.39,-351.43 653.13,-367.02 646.39,-384.21"/>
<text text-anchor="middle" x="607.56" y="-367.82" font-family="Helvetica-Outline" font-size="14.00">4.3 BSD</text>
</g>
<!-- 4.2 BSD&#45;&gt;4.3 BSD -->
<g id="edge29" class="edge">
<title>4.2 BSD&#45;&gt;4.3 BSD</title>
<path fill="none" stroke="black" d="M494.85,-449.42C514.86,-435.77 544.68,-415.42 568.62,-399.09"/>
<polygon fill="black" stroke="black" points="570.86,-401.8 577.15,-393.27 566.91,-396.02 570.86,-401.8"/>
</g>
<!-- Ultrix&#45;32 -->
<g id="node27" class="node">
<title>Ultrix&#45;32</title>
<polygon fill="#cd9b1d" stroke="#cd9b1d" points="487.82,-388.29 412.6,-379.87 394.26,-350.6 543.56,-367.32 487.82,-388.29"/>
<text text-anchor="middle" x="459.56" y="-367.82" font-family="Helvetica-Outline" font-size="14.00">Ultrix&#45;32</text>
</g>
<!-- 4.2 BSD&#45;&gt;Ultrix&#45;32 -->
<g id="edge30" class="edge">
<title>4.2 BSD&#45;&gt;Ultrix&#45;32</title>
<path fill="none" stroke="black" d="M469.41,-442.34C467.41,-428.16 464.83,-409.86 462.81,-395.55"/>
<polygon fill="black" stroke="black" points="466.26,-394.93 461.39,-385.52 459.33,-395.91 466.26,-394.93"/>
</g>
<!-- PWB 1.2&#45;&gt;PWB 2.0 -->
<g id="edge33" class="edge">
<title>PWB 1.2&#45;&gt;PWB 2.0</title>
<path fill="none" stroke="black" d="M902.65,-977.97C881.53,-964.52 856.32,-948.46 836,-935.52"/>
<polygon fill="black" stroke="black" points="837.64,-932.42 827.33,-930 833.88,-938.32 837.64,-932.42"/>
</g>
<!-- CB Unix 1 -->
<g id="node30" class="node">
<title>CB Unix 1</title>
<polygon fill="firebrick" stroke="firebrick" points="1205.72,-918.67 1192.69,-931.02 1156.91,-934.49 1119.08,-928.66 1090.83,-914.41 1079.31,-896.57 1093.88,-884.68 1135.16,-886.58 1182.45,-900.95 1205.72,-918.67"/>
<text text-anchor="middle" x="1139.56" y="-906.97" font-family="Helvetica-Outline" font-size="14.00">CB Unix 1</text>
</g>
<!-- USG 1.0&#45;&gt;CB Unix 1 -->
<g id="edge34" class="edge">
<title>USG 1.0&#45;&gt;CB Unix 1</title>
<path fill="none" stroke="black" d="M1110.18,-990.26C1115.18,-976.9 1122.61,-957.01 1128.75,-940.59"/>
<polygon fill="black" stroke="black" points="1132.15,-941.49 1132.37,-930.89 1125.59,-939.04 1132.15,-941.49"/>
</g>
<!-- USG 2.0 -->
<g id="node31" class="node">
<title>USG 2.0</title>
<polygon fill="#458b00" stroke="#458b00" points="960.55,-937.65 905.96,-882.78 1011.43,-896.62 1040.3,-925.63 960.55,-937.65"/>
<text text-anchor="middle" x="979.56" y="-906.97" font-family="Helvetica-Outline" font-size="14.00">USG 2.0</text>
</g>
<!-- USG 1.0&#45;&gt;USG 2.0 -->
<g id="edge35" class="edge">
<title>USG 1.0&#45;&gt;USG 2.0</title>
<path fill="none" stroke="black" d="M1087.44,-992.48C1068.54,-978.32 1037.63,-955.17 1013.73,-937.26"/>
<polygon fill="black" stroke="black" points="1015.7,-934.37 1005.59,-931.17 1011.5,-939.97 1015.7,-934.37"/>
</g>
<!-- CB Unix 2 -->
<g id="node32" class="node">
<title>CB Unix 2</title>
<polygon fill="greenyellow" stroke="greenyellow" points="1302.67,-816.29 1310.76,-830.51 1296.24,-839.89 1251.21,-837.98 1198.02,-826.59 1173.57,-813.64 1192.36,-805.17 1233.76,-801.54 1268.52,-801.26 1288.49,-805.53 1302.67,-816.29"/>
<text text-anchor="middle" x="1251.56" y="-814.14" font-family="Helvetica-Outline" font-size="14.00">CB Unix 2</text>
</g>
<!-- CB Unix 1&#45;&gt;CB Unix 2 -->
<g id="edge36" class="edge">
<title>CB Unix 1&#45;&gt;CB Unix 2</title>
<path fill="none" stroke="black" d="M1159.33,-893.64C1177.54,-878.87 1204.72,-856.83 1224.86,-840.5"/>
<polygon fill="black" stroke="black" points="1227.17,-843.12 1232.74,-834.1 1222.77,-837.68 1227.17,-843.12"/>
</g>
<!-- USG 3.0 -->
<g id="node36" class="node">
<title>USG 3.0</title>
<polygon fill="#eed5b7" stroke="#eed5b7" points="884.67,-836.05 827.45,-820.22 842.24,-789.06 975.88,-826.02 884.67,-836.05"/>
<text text-anchor="middle" x="882.56" y="-814.14" font-family="Helvetica-Outline" font-size="14.00">USG 3.0</text>
</g>
<!-- USG 2.0&#45;&gt;USG 3.0 -->
<g id="edge40" class="edge">
<title>USG 2.0&#45;&gt;USG 3.0</title>
<path fill="none" stroke="black" d="M958.03,-889.51C942.87,-875.32 922.56,-856.3 906.83,-841.57"/>
<polygon fill="black" stroke="black" points="909.21,-839 899.52,-834.72 904.43,-844.11 909.21,-839"/>
</g>
<!-- CB Unix 3 -->
<g id="node33" class="node">
<title>CB Unix 3</title>
<polygon fill="#8b7d6b" stroke="#8b7d6b" points="1223.65,-724.38 1242.37,-739.87 1232.9,-750.07 1182.67,-748.07 1117.04,-735.78 1081.1,-721.64 1094.75,-712.22 1136.6,-708.08 1174.46,-707.76 1200.07,-712.56 1223.65,-724.38"/>
<text text-anchor="middle" x="1168.56" y="-722.34" font-family="Helvetica-Outline" font-size="14.00">CB Unix 3</text>
</g>
<!-- CB Unix 2&#45;&gt;CB Unix 3 -->
<g id="edge37" class="edge">
<title>CB Unix 2&#45;&gt;CB Unix 3</title>
<path fill="none" stroke="black" d="M1237.1,-801.2C1225.63,-788.79 1209.28,-771.1 1195.43,-756.11"/>
<polygon fill="black" stroke="black" points="1197.8,-753.53 1188.45,-748.56 1192.66,-758.28 1197.8,-753.53"/>
</g>
<!-- Unix/TS++ -->
<g id="node34" class="node">
<title>Unix/TS++</title>
<polygon fill="#eed5d2" stroke="#eed5d2" points="1142.53,-648.56 1108.3,-661.82 1007.51,-653.42 986.59,-635.55 1043.64,-624.18 1098.8,-628.78 1142.53,-648.56"/>
<text text-anchor="middle" x="1064.56" y="-638.35" font-family="Helvetica-Outline" font-size="14.00">Unix/TS++</text>
</g>
<!-- CB Unix 3&#45;&gt;Unix/TS++ -->
<g id="edge38" class="edge">
<title>CB Unix 3&#45;&gt;Unix/TS++</title>
<path fill="none" stroke="black" d="M1146.76,-707.86C1131.5,-695.83 1110.95,-679.62 1094.2,-666.42"/>
<polygon fill="black" stroke="black" points="1096.35,-663.66 1086.33,-660.22 1092.02,-669.16 1096.35,-663.66"/>
</g>
<!-- PDP&#45;11 Sys V -->
<g id="node35" class="node">
<title>PDP&#45;11 Sys V</title>
<polygon fill="#98f5ff" stroke="#98f5ff" points="1316.35,-646.78 1291.17,-657.32 1243.59,-661.19 1200.1,-657.47 1174.59,-646.53 1172.59,-632.14 1199.23,-621.91 1249.92,-622.31 1299.49,-632.83 1316.35,-646.78"/>
<text text-anchor="middle" x="1238.56" y="-638.35" font-family="Helvetica-Outline" font-size="14.00">PDP&#45;11 Sys V</text>
</g>
<!-- CB Unix 3&#45;&gt;PDP&#45;11 Sys V -->
<g id="edge39" class="edge">
<title>CB Unix 3&#45;&gt;PDP&#45;11 Sys V</title>
<path fill="none" stroke="black" d="M1182.39,-708.84C1192.42,-697.1 1206.17,-680.99 1217.55,-667.66"/>
<polygon fill="black" stroke="black" points="1220.45,-669.66 1224.28,-659.78 1215.12,-665.11 1220.45,-669.66"/>
</g>
<!-- CB Unix 3&#45;&gt;TS 4.0 -->
<g id="edge46" class="edge">
<title>CB Unix 3&#45;&gt;TS 4.0</title>
<path fill="none" stroke="black" d="M1086.47,-717.65C1048.07,-709.93 1004.88,-694.35 977.56,-663.14 959.26,-642.22 955.94,-609.7 956.3,-586.54"/>
<polygon fill="black" stroke="black" points="959.8,-586.46 956.7,-576.33 952.81,-586.19 959.8,-586.46"/>
</g>
<!-- Unix/TS++&#45;&gt;TS 4.0 -->
<g id="edge45" class="edge">
<title>Unix/TS++&#45;&gt;TS 4.0</title>
<path fill="none" stroke="black" d="M1042.85,-624.23C1029.34,-613.76 1011.6,-600.01 995.88,-587.83"/>
<polygon fill="black" stroke="black" points="997.92,-584.99 987.87,-581.63 993.63,-590.52 997.92,-584.99"/>
</g>
<!-- USG 3.0&#45;&gt;Unix/TS 3.0 -->
<g id="edge41" class="edge">
<title>USG 3.0&#45;&gt;Unix/TS 3.0</title>
<path fill="none" stroke="black" d="M882.56,-799.95C882.56,-787.8 882.56,-771.11 882.56,-756.75"/>
<polygon fill="black" stroke="black" points="886.06,-756.35 882.56,-746.35 879.06,-756.35 886.06,-756.35"/>
</g>
<!-- Unix/TS 1.0 -->
<g id="node37" class="node">
<title>Unix/TS 1.0</title>
<polygon fill="orangered" stroke="orangered" points="1035.44,-837.38 993.79,-805.76 1120.68,-803.62 1148.32,-824.6 1035.44,-837.38"/>
<text text-anchor="middle" x="1074.56" y="-814.14" font-family="Helvetica-Outline" font-size="14.00">Unix/TS 1.0</text>
</g>
<!-- Unix/TS 1.0&#45;&gt;Unix/TS 3.0 -->
<g id="edge43" class="edge">
<title>Unix/TS 1.0&#45;&gt;Unix/TS 3.0</title>
<path fill="none" stroke="black" d="M1048.67,-804.73C1022.07,-792.29 979.7,-772.48 944.41,-755.97"/>
<polygon fill="black" stroke="black" points="945.68,-752.7 935.14,-751.63 942.71,-759.04 945.68,-752.7"/>
</g>
<!-- System V.0 -->
<g id="node39" class="node">
<title>System V.0</title>
<polygon fill="#ff7f00" stroke="#ff7f00" points="1038.73,-467.63 1016.53,-478.71 967.03,-483.64 913.07,-480.06 880.38,-469.73 884.79,-457.57 923.88,-449.21 978.76,-448.46 1023.86,-455.7 1038.73,-467.63"/>
<text text-anchor="middle" x="958.56" y="-461.94" font-family="Helvetica-Outline" font-size="14.00">System V.0</text>
</g>
<!-- TS 4.0&#45;&gt;System V.0 -->
<g id="edge47" class="edge">
<title>TS 4.0&#45;&gt;System V.0</title>
<path fill="none" stroke="black" d="M958.56,-536.42C958.56,-523.7 958.56,-507.2 958.56,-493.45"/>
<polygon fill="black" stroke="black" points="962.06,-493.12 958.56,-483.12 955.06,-493.12 962.06,-493.12"/>
</g>
<!-- System V.2 -->
<g id="node40" class="node">
<title>System V.2</title>
<polygon fill="#6e8b3d" stroke="#6e8b3d" points="1050.93,-388.39 983.81,-394.85 853.76,-371.1 866.19,-354.65 970.98,-355.07 1025.69,-365.06 1050.93,-388.39"/>
<text text-anchor="middle" x="958.56" y="-367.82" font-family="Helvetica-Outline" font-size="14.00">System V.2</text>
</g>
<!-- System V.0&#45;&gt;System V.2 -->
<g id="edge48" class="edge">
<title>System V.0&#45;&gt;System V.2</title>
<path fill="none" stroke="black" d="M958.56,-448.59C958.56,-435.36 958.56,-416.26 958.56,-400.52"/>
<polygon fill="black" stroke="black" points="962.06,-400.27 958.56,-390.27 955.06,-400.27 962.06,-400.27"/>
</g>
<!-- System V.3 -->
<g id="node41" class="node">
<title>System V.3</title>
<polygon fill="#cae1ff" stroke="#cae1ff" points="1017.12,-302.82 949.31,-300.04 903.07,-291.4 898.62,-276.67 924.69,-260.19 982.77,-264.12 1034.34,-287.9 1017.12,-302.82"/>
<text text-anchor="middle" x="958.56" y="-279.61" font-family="Helvetica-Outline" font-size="14.00">System V.3</text>
</g>
<!-- System V.2&#45;&gt;System V.3 -->
<g id="edge49" class="edge">
<title>System V.2&#45;&gt;System V.3</title>
<path fill="none" stroke="black" d="M958.56,-354.71C958.56,-342.47 958.56,-325.24 958.56,-310.89"/>
<polygon fill="black" stroke="black" points="962.06,-310.61 958.56,-300.61 955.06,-310.61 962.06,-310.61"/>
</g>
</g>
</svg>
